<?xml version="1.0" encoding="UTF-8" standalone="no"?>
<!-- Created with Inkscape (http://www.inkscape.org/) -->

<svg
   xmlns:dc="http://purl.org/dc/elements/1.1/"
   xmlns:cc="http://creativecommons.org/ns#"
   xmlns:rdf="http://www.w3.org/1999/02/22-rdf-syntax-ns#"
   xmlns:svg="http://www.w3.org/2000/svg"
   xmlns="http://www.w3.org/2000/svg"
   xmlns:xlink="http://www.w3.org/1999/xlink"
   xmlns:sodipodi="http://sodipodi.sourceforge.net/DTD/sodipodi-0.dtd"
   xmlns:inkscape="http://www.inkscape.org/namespaces/inkscape"
   width="128"
   height="128"
   id="svg2"
   version="1.1"
   inkscape:version="0.48.3.1 r9886"
   sodipodi:docname="artist.svg">
  <defs
     id="defs4">
    <linearGradient
       id="linearGradient3915">
      <stop
         style="stop-color:#d7d7d7;stop-opacity:1;"
         offset="0"
         id="stop3917" />
      <stop
         id="stop3923"
         offset="0.5"
         style="stop-color:#ffffff;stop-opacity:1;" />
      <stop
         style="stop-color:#d6d6d6;stop-opacity:1;"
         offset="1"
         id="stop3919" />
    </linearGradient>
    <linearGradient
       inkscape:collect="always"
       xlink:href="#linearGradient3915"
       id="linearGradient3921"
       x1="41.725056"
       y1="978.14935"
       x2="67.758904"
       y2="994.59772"
       gradientUnits="userSpaceOnUse"
       gradientTransform="matrix(1.0566146,0,0,0.9519289,-2.1526948,-874.73993)" />
    <filter
       inkscape:collect="always"
       id="filter4616"
       x="-0.158379"
       width="1.316758"
       y="-0.11699119"
       height="1.2339824">
      <feGaussianBlur
         inkscape:collect="always"
         stdDeviation="5.414165"
         id="feGaussianBlur4618" />
    </filter>
  </defs>
  <sodipodi:namedview
     id="base"
     pagecolor="#ffffff"
     bordercolor="#666666"
     borderopacity="1.0"
     inkscape:pageopacity="0.0"
     inkscape:pageshadow="2"
     inkscape:zoom="2.2842864"
     inkscape:cx="27.618234"
     inkscape:cy="62.310954"
     inkscape:document-units="px"
     inkscape:current-layer="layer3"
     showgrid="false"
     inkscape:window-width="1366"
     inkscape:window-height="735"
     inkscape:window-x="0"
     inkscape:window-y="1"
     inkscape:window-maximized="1"
     showguides="true"
     inkscape:guide-bbox="true" />
  <metadata
     id="metadata7">
    <rdf:RDF>
      <cc:Work
         rdf:about="">
        <dc:format>image/svg+xml</dc:format>
        <dc:type
           rdf:resource="http://purl.org/dc/dcmitype/StillImage" />
        <dc:title />
      </cc:Work>
    </rdf:RDF>
  </metadata>
  <g
     inkscape:groupmode="layer"
     id="layer3"
     inkscape:label="Work"
     style="display:inline">
    <path
       style="opacity:0.37318839;fill:#525252;fill-opacity:1;fill-rule:nonzero;stroke:none;display:inline;filter:url(#filter4616)"
       d="m 50.149349,980.62685 c 0,0 -5.576888,-5.39371 -5.071812,-16.24619 -3.457851,0.359 -7.219511,3.59439 -7.219511,3.59439 0,0 0.102572,-4.70072 4.656143,-9.2543 -4.410668,-0.36032 -8.03405,2.01225 -8.03405,2.01225 0,0 6.865619,-12.17658 13.395716,-14.98809 -6.565992,-1.76776 -17.941374,6.34218 -17.941374,6.34218 0,0 5.789153,-14.4312 31.621394,-19.75591 -1.039227,-2.38194 -5.483246,-5.56024 -5.483246,-5.56024 8.394107,0.14263 14.757379,6.09486 17.499003,9.44528 4.027816,0.7485 8.597191,1.56827 13.538881,7.87699 0,0 -2.944706,-1.33659 -6.041726,-1.33659 0,0 6.625635,4.93403 8.324922,12.64616 0,0 -3.790648,-4.79105 -9.038907,-7.40871 0,0 7.297267,7.61168 7.635736,15.80949 -2.572385,-3.493 -6.295578,-3.99198 -6.295578,-3.99198 -0.338472,12.97388 -6.430967,20.81527 -6.430967,20.81527 0,0 13.519951,2.44158 23.28688,7.27108 9.356097,4.93749 3.324647,43.13077 1.218491,48.47387 -6.414192,-1.8146 -21.941674,-3.9308 -32.070719,-5.1284 -7.727728,-0.7173 -30.806724,8.4124 -38.466846,6.2689 -6.062316,-1.9211 -10.421093,-42.23032 -5.550942,-46.05011 8.587674,-7.3241 26.468512,-10.83534 26.468512,-10.83534 z"
       id="path4518"
       inkscape:connector-curvature="0"
       sodipodi:nodetypes="ccccccccccccccccccccccc"
       transform="matrix(1.136229,0,0,0.48581093,-7.137202,-383.85747)" />
    <path
       sodipodi:nodetypes="ccccccccccccccccccccccc"
       inkscape:connector-curvature="0"
       id="path3861"
       d="m 50.835842,58.747103 c 0,0 -5.892622,-5.134429 -5.358951,-15.465218 -3.653617,0.341742 -7.628242,3.421603 -7.628242,3.421603 0,0 0.108374,-4.474751 4.91975,-8.809435 -4.660376,-0.343 -8.488895,1.915519 -8.488895,1.915519 0,0 7.254313,-11.591239 14.154109,-14.267596 -6.937723,-1.682782 -18.957119,6.037304 -18.957119,6.037304 0,0 6.116906,-13.737476 33.411629,-18.806222 -1.098062,-2.267437 -5.793678,-5.2929523 -5.793678,-5.2929523 8.869336,0.1357736 15.592863,5.8018733 18.489704,8.9912343 4.255848,0.712519 9.083917,1.492882 14.305379,7.498334 0,0 -3.111419,-1.272338 -6.383776,-1.272338 0,0 7.000743,4.696846 8.796234,12.038245 0,0 -4.005253,-4.560739 -9.550641,-7.052565 0,0 7.710399,7.245778 8.06803,15.049511 -2.718019,-3.325088 -6.652,-3.800082 -6.652,-3.800082 -0.357634,12.350212 -6.795054,19.814658 -6.795054,19.814658 0,0 14.285378,2.32421 24.605259,6.921551 9.88579,4.700139 3.51288,41.057436 1.28748,46.143696 -6.777332,-1.72737 -23.183899,-3.74185 -33.886396,-4.88188 -8.165231,-0.68282 -32.550837,8.00801 -40.644633,5.96754 C 22.328499,111.06927 17.722952,72.697744 22.868823,69.061575 31.942686,62.089553 50.835842,58.747103 50.835842,58.747103 z"
       style="fill:#525252;fill-opacity:1;fill-rule:nonzero;stroke:none;display:inline" />
    <path
       style="fill:#ffffff;fill-opacity:1;stroke:none;display:inline"
       d="m 54.180767,59.685057 c 0,0 -7.540443,-4.534551 -6.845102,-17.99493 -3.686971,-0.199154 -7.098904,2.128217 -7.098904,2.128217 0,0 1.54973,-3.695597 5.464865,-6.882865 -4.126705,-0.643494 -7.463983,0.06883 -7.463983,0.06883 0,0 7.298707,-9.867724 14.598757,-11.702691 -8.005067,-3.425668 -16.997707,1.117689 -16.997707,1.117689 0,0 6.625719,-8.877966 29.117404,-12.804814 -1.098063,-2.267438 -3.144622,-4.2644789 -3.144622,-4.2644789 7.359887,2.3455989 9.460723,5.6318759 12.357563,8.8212379 3.784148,0.117563 6.159359,0.72794 10.343075,3.078672 0,0 -4.054824,-0.507397 -7.327181,-0.507397 0,0 6.057338,2.06204 11.154749,8.808483 0,0 -4.099594,-3.710799 -9.550642,-4.502757 0,0 5.917929,6.140865 9.577481,13.859609 -3.472744,-2.560146 -5.708594,-2.355196 -5.708594,-2.355196 0,15.475603 -9.24791,23.299393 -9.24791,23.299393 0,0 16.832574,2.239222 27.152454,6.836563 9.22541,5.210097 3.79589,37.912658 1.5705,42.998918 -6.777332,-1.72737 -22.380612,-3.55307 -33.083109,-4.69311 -8.165231,-0.68281 -30.328517,7.74271 -38.422314,5.70225 C 24.222015,108.86793 19.892784,73.122757 25.038657,69.486588 34.11252,62.514565 54.180767,59.6851 54.180767,59.6851 z"
       id="path3864"
       inkscape:connector-curvature="0"
       sodipodi:nodetypes="cccccccccccccccccccccccc" />
    <path
       sodipodi:nodetypes="cccccccccccccccccccccccc"
       inkscape:connector-curvature="0"
       id="path3913"
       d="m 56.068729,59.13529 c 0,0 -8.750504,-6.561665 -6.731799,-19.368355 -1.328457,-0.326645 -3.345393,0.184198 -3.345393,0.184198 0,0 1.078027,-2.675672 2.823327,-3.950582 -1.725184,-1.725284 -5.707475,-1.28003 -5.707475,-1.28003 0,0 5.030606,-7.223341 12.330657,-9.058307 -2.134686,-3.004974 -11.060618,-3.509981 -11.060618,-3.509981 0,0 15.49922,-8.247655 22.018633,-5.886956 -0.01315,-1.205019 0.179615,-3.558016 0.179615,-3.558016 2.512215,0.87014 5.790106,5.044728 6.885808,6.611404 1.09544,-0.0099 2.826456,0.0038 4.176025,0.578648 0,0 -2.259985,1.008788 -3.097468,1.489589 0,0 4.456902,0.822703 7.195799,3.149475 0,0 -3.745819,-0.863514 -6.248721,-0.25307 0,0 6.985099,7.957545 7.209146,9.666333 -1.3128,1.503886 -1.886242,4.445479 -1.886242,4.445479 -0.09434,11.98411 -9.35022,20.605253 -9.35022,20.605253 l 0.03658,2.252826 c 0,0 17.898316,3.277043 27.198238,6.63742 7.891219,3.767705 4.062719,34.547122 1.837329,39.633382 -6.777327,-1.72737 -21.046429,-3.55307 -31.748927,-4.69312 -8.16523,-0.68281 -31.349393,7.87084 -37.354973,5.70226 -4.227783,-1.67931 -8.066407,-35.169988 -4.254712,-37.604166 9.438223,-6.567681 28.848218,-9.881326 28.848218,-9.881326"
       style="fill:url(#linearGradient3921);fill-opacity:1;stroke:none;display:inline" />
  </g>
</svg>
