<?xml version="1.0" encoding="UTF-8" standalone="no"?>
<!-- Created with Inkscape (http://www.inkscape.org/) -->

<svg
   xmlns:dc="http://purl.org/dc/elements/1.1/"
   xmlns:cc="http://creativecommons.org/ns#"
   xmlns:rdf="http://www.w3.org/1999/02/22-rdf-syntax-ns#"
   xmlns:svg="http://www.w3.org/2000/svg"
   xmlns="http://www.w3.org/2000/svg"
   xmlns:xlink="http://www.w3.org/1999/xlink"
   xmlns:sodipodi="http://sodipodi.sourceforge.net/DTD/sodipodi-0.dtd"
   xmlns:inkscape="http://www.inkscape.org/namespaces/inkscape"
   version="1.2"
   width="128"
   height="128"
   id="svg2"
   inkscape:version="0.48.3.1 r9886"
   sodipodi:docname="main.svg"
   inkscape:export-filename="/home/snoopy/projets/android-snoopy-xbmc-music-remote/build/main-1.png"
   inkscape:export-xdpi="33.75"
   inkscape:export-ydpi="33.75">
  <sodipodi:namedview
     pagecolor="#ffffff"
     bordercolor="#666666"
     borderopacity="1"
     objecttolerance="10"
     gridtolerance="10"
     guidetolerance="10"
     inkscape:pageopacity="0"
     inkscape:pageshadow="2"
     inkscape:window-width="1366"
     inkscape:window-height="735"
     id="namedview61"
     showgrid="false"
     inkscape:zoom="3.6875"
     inkscape:cx="40.813559"
     inkscape:cy="66.118542"
     inkscape:window-x="0"
     inkscape:window-y="1"
     inkscape:window-maximized="1"
     inkscape:current-layer="svg2" />
  <defs
     id="defs4">
    <linearGradient
       id="linearGradient3906-9">
      <stop
         id="stop3908-2"
         style="stop-color:#ffffff;stop-opacity:1"
         offset="0" />
      <stop
         id="stop3930-3"
         style="stop-color:#ffffff;stop-opacity:1"
         offset="0" />
      <stop
         id="stop3910-2"
         style="stop-color:#ffffff;stop-opacity:0"
         offset="1" />
    </linearGradient>
    <filter
       x="-0.14399999"
       y="-0.14399999"
       width="1.288"
       height="1.288"
       color-interpolation-filters="sRGB"
       id="filter3914-4">
      <feGaussianBlur
         id="feGaussianBlur3916-6"
         stdDeviation="1.8334268" />
    </filter>
    <linearGradient
       id="linearGradient3874-2">
      <stop
         id="stop3876-1"
         style="stop-color:#4067e1;stop-opacity:1"
         offset="0" />
      <stop
         id="stop3882-8"
         style="stop-color:#ffffff;stop-opacity:1"
         offset="0.67096013" />
      <stop
         id="stop3878-3"
         style="stop-color:#8999d5;stop-opacity:1"
         offset="1" />
    </linearGradient>
    <filter
       color-interpolation-filters="sRGB"
       id="filter3826-4">
      <feGaussianBlur
         id="feGaussianBlur3828-7"
         stdDeviation="2.4802732" />
    </filter>
    <filter
       inkscape:collect="always"
       id="filter4003">
      <feGaussianBlur
         inkscape:collect="always"
         stdDeviation="0.90137013"
         id="feGaussianBlur4005" />
    </filter>
    <linearGradient
       inkscape:collect="always"
       xlink:href="#linearGradient3874-2"
       id="linearGradient4015"
       gradientUnits="userSpaceOnUse"
       gradientTransform="matrix(0.76439465,0,0,0.76439465,-1.024292,8.7163973)"
       x1="42.931477"
       y1="62.34008"
       x2="65.154839"
       y2="75.97715" />
    <radialGradient
       inkscape:collect="always"
       xlink:href="#linearGradient3906-9"
       id="radialGradient4017"
       gradientUnits="userSpaceOnUse"
       gradientTransform="matrix(0.71270922,0,0,0.71270922,-0.48815549,15.467118)"
       cx="30.809652"
       cy="101.4835"
       fx="30.809652"
       fy="101.4835"
       r="15.278557" />
    <radialGradient
       inkscape:collect="always"
       xlink:href="#linearGradient3906-9"
       id="radialGradient4019"
       gradientUnits="userSpaceOnUse"
       cx="30.809652"
       cy="101.4835"
       fx="30.809652"
       fy="101.4835"
       r="19.381254" />
  </defs>
  <metadata
     id="metadata7">
    <rdf:RDF>
      <cc:Work
         rdf:about="">
        <dc:format>image/svg+xml</dc:format>
        <dc:type
           rdf:resource="http://purl.org/dc/dcmitype/StillImage" />
        <dc:title />
      </cc:Work>
    </rdf:RDF>
  </metadata>
  <g
     id="g4009"
     transform="translate(1.3559322,19.254237)">
    <path
       d="m 92.566964,14.901786 -63.34375,27.40625 c 8.351285,16.106045 10.651633,37.895578 6.125,56.758929 -1.983365,-1.04737 -4.226066,-1.65625 -6.625,-1.65625 -7.867561,0 -14.25,6.382445 -14.25,14.250005 0,7.86756 6.382439,14.25 14.25,14.25 4.068558,0 7.709124,-1.70984 9.788512,-3.78923 1.244553,-1.24455 3.064224,-3.30133 4.148988,-5.86697 4.513087,-11.1643 9.290179,-32.87501 6.075893,-53.41072 l 40.9375,-17.8125 c 1.743327,7.245933 1.371028,20.492611 -1.857143,31.410715 -2.003983,-1.075954 -4.284962,-1.6875 -6.71875,-1.6875 -7.867561,0 -14.25,6.382439 -14.25,14.25 0,7.867561 6.382439,14.249995 14.25,14.249995 4.522503,0 8.546666,-2.11983 10.667849,-4.684318 2.121183,-2.564535 2.985251,-4.580602 4.019651,-7.096977 5.845256,-15.47542 11.428466,-48.034619 -3.21875,-76.571429 z m -7.40625,12.96875 c 0,0 1.63266,3.91513 2.5625,7.9375 l -41.09375,17.90625 c -1.247757,-4.31186 -2.78125,-7.84375 -2.78125,-7.84375 z"
       transform="matrix(0.8862361,0,0,0.56548235,-7.9204472,31.683373)"
       id="path3777"
       style="opacity:0.4311594;fill:#000000;fill-opacity:1;fill-rule:nonzero;stroke:none;display:inline;filter:url(#filter3826-4)"
       inkscape:connector-curvature="0" />
    <path
       d="m 70.279396,13.828287 -48.419623,20.94919 c 6.383677,12.311379 8.142051,28.967179 4.681917,43.386253 -1.516073,-0.800627 -3.230382,-1.266067 -5.064114,-1.266067 -6.013922,0 -10.892624,4.878673 -10.892624,10.892621 0,6.013959 4.878702,10.892631 10.892624,10.892631 3.109984,0 5.892813,-1.306962 7.482286,-2.896444 0.951329,-0.951365 2.342276,-2.523496 3.171464,-4.484703 3.44978,-8.533936 7.101363,-25.129479 4.64438,-40.826866 L 68.068112,36.859123 c 1.33259,5.538757 1.048007,15.664449 -1.41959,24.010186 -1.531834,-0.822451 -3.275402,-1.289916 -5.135777,-1.289916 -6.013921,0 -10.892623,4.878703 -10.892623,10.892616 0,6.013951 4.878702,10.892624 10.892623,10.892624 3.456977,0 6.533026,-1.620364 8.154447,-3.580654 1.621419,-1.96029 2.281909,-3.501386 3.072598,-5.424909 4.468078,-11.82932 8.735854,-36.717399 -2.460394,-58.530783 z m -5.661297,9.913242 c 0,0 1.247996,2.992705 1.958761,6.067383 L 35.165017,43.496354 c -0.953779,-3.295963 -2.125972,-5.995721 -2.125972,-5.995721 z"
       id="path3819"
       style="fill:url(#linearGradient4015);fill-opacity:1;fill-rule:nonzero;stroke:#334371;stroke-width:1.79785621;stroke-miterlimit:4;stroke-opacity:1;stroke-dasharray:none;display:inline"
       inkscape:connector-curvature="0" />
    <path
       d="m 32.359336,87.795344 a 10.889168,10.889168 0 1 1 -21.778336,0 10.889168,10.889168 0 1 1 21.778336,0 z"
       id="path3844"
       style="opacity:0.70542632;fill:url(#radialGradient4017);fill-opacity:1;stroke:none;display:inline"
       inkscape:connector-curvature="0" />
    <path
       d="m 46.088209,101.4835 a 15.278557,15.278557 0 1 1 -30.557113,0 15.278557,15.278557 0 1 1 30.557113,0 z"
       transform="matrix(0.71270922,0,0,0.71270922,39.550877,-1.8566256)"
       id="path3846"
       style="opacity:0.82558139;fill:url(#radialGradient4019);fill-opacity:1;stroke:none;display:inline;filter:url(#filter3914-4)"
       inkscape:connector-curvature="0" />
  </g>
  <g
     id="layer9"
     style="display:inline" />
  <path
     style="fill-opacity:1;fill-rule:nonzero;fill:#247700;opacity:0.60852713000000003;stroke:none;stroke-opacity:1;stroke-width:2.35199999999999987;stroke-miterlimit:4;stroke-dasharray:none;stroke-dashoffset:0;stroke-linecap:square;stroke-linejoin:miter"
     id="path3843" />
  <g
     id="g3983"
     style="opacity:0.50362321;filter:url(#filter4003)"
     transform="matrix(0.92359223,-0.3833763,0.3833763,0.92359223,-16.728747,13.287073)">
    <path
       style="fill:none;stroke:#000000;stroke-width:2;stroke-linecap:round;stroke-linejoin:miter;stroke-miterlimit:4;stroke-opacity:1;stroke-dasharray:none"
       d="m 88.949152,86.237289 c 10.418683,-10.418678 10.211623,-36.703635 0,-46.915255"
       id="path3985"
       inkscape:connector-curvature="0"
       sodipodi:nodetypes="cc" />
    <path
       sodipodi:nodetypes="cc"
       inkscape:connector-curvature="0"
       id="path3987"
       d="m 101.54518,80.2517 c 5.89174,-7.639738 5.77465,-26.913796 0,-34.401705"
       style="fill:none;stroke:#000000;stroke-width:1.76826692;stroke-linecap:round;stroke-linejoin:miter;stroke-miterlimit:4;stroke-opacity:1;stroke-dasharray:none" />
    <path
       style="fill:none;stroke:#000000;stroke-width:1.56994224;stroke-linecap:round;stroke-linejoin:miter;stroke-miterlimit:4;stroke-opacity:1;stroke-dasharray:none"
       d="m 111.89812,74.525784 c 3.02382,-5.096579 2.96373,-17.954583 0,-22.949873"
       id="path3989"
       inkscape:connector-curvature="0"
       sodipodi:nodetypes="cc" />
  </g>
  <g
     id="g3978"
     transform="matrix(0.92359223,-0.3833763,0.3833763,0.92359223,-19.448422,11.332965)"
     style="stroke:#1c284d;stroke-opacity:1;stroke-width:3.00000000999999994;stroke-miterlimit:4;stroke-dasharray:none;stroke-linecap:round">
    <path
       sodipodi:nodetypes="cc"
       inkscape:connector-curvature="0"
       id="path3811"
       d="m 88.949152,86.237289 c 10.418683,-10.418678 10.211623,-36.703635 0,-46.915255"
       style="fill:none;stroke:#1c284d;stroke-width:3.00000000999999994;stroke-linecap:round;stroke-linejoin:miter;stroke-miterlimit:4;stroke-opacity:1;stroke-dasharray:none" />
    <path
       style="fill:none;stroke:#1c284d;stroke-width:3.00000000999999994;stroke-linecap:round;stroke-linejoin:miter;stroke-miterlimit:4;stroke-opacity:1;stroke-dasharray:none"
       d="m 101.54518,80.2517 c 5.89174,-7.639738 5.77465,-26.913796 0,-34.401705"
       id="path3813"
       inkscape:connector-curvature="0"
       sodipodi:nodetypes="cc" />
    <path
       sodipodi:nodetypes="cc"
       inkscape:connector-curvature="0"
       id="path3815"
       d="m 111.89812,74.525784 c 3.02382,-5.096579 2.96373,-17.954583 0,-22.949873"
       style="fill:none;stroke:#1c284d;stroke-width:3.00000000999999994;stroke-linecap:round;stroke-linejoin:miter;stroke-miterlimit:4;stroke-opacity:1;stroke-dasharray:none" />
  </g>
  <g
     transform="matrix(0.92359223,-0.3833763,0.3833763,0.92359223,-19.990795,11.654999)"
     id="g4039"
     style="stroke:#ffffff;stroke-width:0.69999999;stroke-linecap:round;stroke-miterlimit:4;stroke-opacity:1;stroke-dasharray:none">
    <path
       style="fill:none;stroke:#ffffff;stroke-width:0.69999999;stroke-linecap:round;stroke-linejoin:miter;stroke-miterlimit:4;stroke-opacity:1;stroke-dasharray:none"
       d="m 88.949152,86.237289 c 10.418683,-10.418678 10.211623,-36.703635 0,-46.915255"
       id="path4041"
       inkscape:connector-curvature="0"
       sodipodi:nodetypes="cc" />
    <path
       sodipodi:nodetypes="cc"
       inkscape:connector-curvature="0"
       id="path4043"
       d="m 101.54518,80.2517 c 5.89174,-7.639738 5.77465,-26.913796 0,-34.401705"
       style="fill:none;stroke:#ffffff;stroke-width:0.69999999;stroke-linecap:round;stroke-linejoin:miter;stroke-miterlimit:4;stroke-opacity:1;stroke-dasharray:none" />
    <path
       style="fill:none;stroke:#ffffff;stroke-width:0.69999999;stroke-linecap:round;stroke-linejoin:miter;stroke-miterlimit:4;stroke-opacity:1;stroke-dasharray:none"
       d="m 111.89812,74.525784 c 3.02382,-5.096579 2.96373,-17.954583 0,-22.949873"
       id="path4045"
       inkscape:connector-curvature="0"
       sodipodi:nodetypes="cc" />
  </g>
</svg>
